<?xml version="1.0" standalone="no"?>
<!DOCTYPE svg PUBLIC "-//W3C//DTD SVG 20010904//EN"
 "http://www.w3.org/TR/2001/REC-SVG-20010904/DTD/svg10.dtd">
<svg version="1.0" xmlns="http://www.w3.org/2000/svg"
 width="390.000000pt" height="390.000000pt" viewBox="0 0 390.000000 390.000000"
 preserveAspectRatio="xMidYMid meet">
<metadata>
Created by potrace 1.14, written by Peter Selinger 2001-2017
</metadata>
<g transform="translate(0.000000,390.000000) scale(0.100000,-0.100000)"
fill="#000000" stroke="none">
<path d="M1140 3890 c8 -5 10 -10 5 -10 -6 0 -11 -9 -12 -20 -1 -11 2 -18 8
-15 5 4 4 -6 -1 -21 -8 -21 -8 -29 2 -36 8 -5 9 -8 2 -8 -6 0 -11 -10 -10 -21
1 -14 -6 -23 -16 -25 -10 -1 -18 3 -18 9 0 7 -5 6 -10 -3 -8 -12 -11 -13 -19
-1 -6 9 -11 10 -15 2 -4 -6 -12 -11 -17 -11 -6 0 -7 6 -3 13 5 8 2 8 -9 -2
-14 -11 -17 -11 -17 0 0 7 -7 3 -16 -9 -8 -12 -21 -19 -27 -16 -8 5 -8 3 1 -7
6 -7 12 -19 12 -27 0 -8 -5 -10 -12 -6 -10 6 -10 4 -3 -7 6 -8 10 -23 10 -34
0 -11 4 -23 10 -27 6 -5 5 -8 -3 -8 -8 0 -10 -8 -6 -26 6 -22 4 -25 -7 -19
-11 7 -12 6 -4 -6 6 -8 10 -23 10 -34 0 -11 4 -23 10 -27 6 -5 5 -8 -3 -8 -8
0 -10 -8 -6 -26 6 -22 4 -25 -7 -19 -11 7 -12 6 -4 -6 6 -8 10 -23 10 -34 0
-11 4 -23 10 -27 6 -5 5 -8 -3 -8 -8 0 -10 -8 -6 -26 6 -22 4 -25 -7 -19 -11
7 -12 6 -3 -6 6 -9 10 -88 9 -214 0 -128 3 -203 10 -207 6 -5 5 -8 -3 -8 -8 0
-10 -8 -6 -26 6 -22 4 -25 -7 -19 -11 7 -12 6 -3 -6 5 -8 10 -26 9 -41 -1 -20
5 -27 22 -31 20 -4 21 -2 11 11 -12 14 -10 14 12 2 14 -8 30 -13 35 -11 34 10
55 10 55 -1 0 -9 3 -8 10 2 8 12 10 10 10 -10 0 -21 2 -22 11 -10 9 12 10 11
4 -5 -13 -39 -15 -65 -5 -65 5 0 10 -5 10 -11 0 -5 -3 -8 -7 -6 -5 3 -9 -6 -9
-19 -1 -17 3 -24 17 -24 10 0 19 -6 19 -12 0 -9 4 -8 10 2 9 13 10 13 10 0 0
-13 1 -13 10 0 9 13 10 13 10 0 0 -13 1 -13 10 0 9 13 10 13 10 0 0 -13 1 -13
10 0 9 13 10 13 10 0 0 -13 1 -13 10 0 8 12 10 12 10 1 0 -8 3 -11 7 -8 3 4
12 2 20 -4 10 -9 10 -15 2 -25 -9 -11 -8 -14 1 -14 10 0 10 -3 0 -15 -9 -11
-9 -15 -1 -15 7 0 9 -5 5 -12 -11 -17 -12 -68 -2 -62 4 3 8 1 8 -5 0 -5 -6
-12 -12 -14 -10 -4 -9 -8 2 -16 13 -10 13 -11 0 -11 -13 0 -13 -1 0 -11 11 -8
12 -12 3 -16 -7 -2 -13 -9 -13 -14 0 -6 5 -7 11 -3 7 4 7 -1 -1 -16 -8 -15 -8
-20 -1 -16 6 4 11 3 11 -3 0 -5 -6 -12 -12 -14 -10 -4 -9 -8 2 -16 13 -10 13
-11 0 -11 -13 0 -13 -1 0 -11 11 -8 12 -12 3 -16 -7 -2 -13 -9 -13 -14 0 -6 5
-7 11 -3 7 4 7 -1 -1 -16 -8 -15 -8 -20 -1 -16 6 4 11 3 11 -3 0 -5 -6 -12
-12 -14 -10 -4 -9 -8 2 -16 13 -10 13 -11 0 -11 -9 0 -11 -3 -5 -8 13 -9 18
-35 5 -27 -5 3 -10 1 -10 -5 0 -7 -15 -10 -45 -6 -27 3 -43 1 -40 -5 4 -5 -6
-4 -21 3 -22 10 -28 10 -32 0 -2 -7 -7 -10 -11 -8 -4 3 -8 -4 -8 -15 -1 -11 2
-17 6 -15 9 6 7 -31 -2 -40 -11 -12 -8 -26 4 -18 7 4 7 -1 -1 -16 -10 -18 -9
-24 1 -31 8 -5 9 -9 4 -9 -6 0 -11 -9 -12 -20 -1 -12 3 -18 9 -14 6 4 6 -2 -1
-15 -9 -16 -9 -21 1 -21 8 0 9 -3 3 -8 -12 -8 -20 -46 -8 -39 4 3 8 -5 8 -18
0 -13 -3 -21 -7 -18 -5 2 -8 0 -8 -5 0 -14 -38 -22 -44 -8 -3 8 -5 8 -5 0 -1
-7 -14 -10 -32 -8 -21 3 -28 0 -24 -9 4 -6 1 -5 -7 4 -13 16 -43 15 -32 -2 3
-5 0 -9 -6 -9 -7 0 -9 -13 -6 -36 5 -26 3 -34 -6 -29 -7 4 -4 -1 6 -9 11 -9
14 -16 8 -16 -8 0 -10 -9 -6 -26 6 -22 4 -25 -7 -19 -11 7 -12 6 -4 -6 6 -8
10 -23 10 -34 0 -11 4 -23 10 -27 6 -5 5 -8 -3 -8 -8 0 -10 -8 -6 -26 5 -21 4
-25 -6 -19 -10 6 -11 4 -4 -6 14 -24 13 -35 -8 -48 -12 -7 -17 -8 -13 -2 3 6
2 11 -4 11 -5 0 -13 -5 -17 -11 -5 -8 -9 -8 -14 1 -6 9 -12 9 -30 0 -15 -8
-20 -8 -16 -1 10 15 -7 14 -22 -1 -9 -9 -12 -9 -12 0 0 10 -3 10 -14 0 -9 -8
-11 -17 -5 -22 11 -12 12 -29 1 -22 -7 4 -8 -33 -2 -41 7 -8 5 -30 -3 -47 -6
-12 -6 -16 1 -12 6 4 15 -2 21 -11 9 -16 12 -16 21 -3 9 13 10 13 10 0 0 -9 3
-11 8 -5 10 14 42 15 42 1 0 -6 5 -4 10 4 9 13 10 13 10 0 0 -13 1 -13 10 0 7
11 10 11 10 2 0 -7 4 -11 9 -8 14 9 20 -31 7 -45 -8 -9 -8 -10 0 -6 7 4 15 0
18 -9 3 -9 2 -12 -5 -9 -7 5 -8 -6 -4 -33 5 -33 2 -43 -12 -50 -21 -11 -52
-10 -72 3 -10 5 -12 4 -7 -3 4 -7 3 -12 -3 -12 -5 0 -12 4 -15 9 -8 13 -30 8
-50 -11 -12 -12 -13 -18 -3 -22 9 -5 9 -7 -1 -12 -6 -3 -9 -11 -5 -17 11 -18
7 -87 -6 -100 -9 -9 -14 -8 -21 3 -5 8 -10 10 -10 4 0 -13 -58 -13 -77 -1 -6
4 -14 3 -18 -3 -4 -6 -11 -8 -16 -5 -5 4 -9 -60 -9 -159 0 -99 4 -167 10 -171
6 -3 10 -2 10 4 0 6 7 8 15 5 26 -10 105 -9 109 1 3 6 5 2 5 -7 1 -10 6 -18
11 -18 7 0 7 -7 -1 -21 -7 -13 -7 -19 -1 -15 6 4 10 -2 9 -14 -1 -11 -6 -20
-12 -20 -6 0 -7 -3 0 -8 15 -11 19 -46 4 -36 -8 4 -10 3 -5 -5 13 -20 14 -91
2 -84 -6 3 -5 0 2 -8 15 -16 16 -33 0 -23 -7 4 -8 3 -4 -5 13 -20 14 -91 2
-84 -6 3 -5 0 2 -8 15 -16 16 -33 1 -23 -8 5 -9 2 -1 -11 6 -11 6 -30 1 -47
-5 -18 -4 -26 2 -22 13 8 7 -29 -6 -38 -6 -5 -5 -8 3 -8 10 0 10 -5 1 -21 -7
-13 -7 -19 -1 -15 6 4 10 -2 9 -14 -1 -11 -6 -20 -12 -20 -6 0 -7 -3 0 -8 15
-10 19 -46 5 -37 -9 6 -9 2 -1 -14 12 -21 12 -21 414 -19 l402 3 -3 24 c-3 17
0 21 10 15 10 -6 11 -4 2 7 -5 8 -9 24 -8 37 0 12 -4 22 -10 22 -6 0 -5 4 3 9
8 5 11 16 8 24 -7 19 26 29 44 13 9 -8 10 -8 5 2 -5 7 -1 12 9 12 9 0 14 -4
11 -8 -2 -4 4 -8 15 -8 10 0 19 3 19 6 0 3 13 6 30 5 23 0 29 -4 24 -17 -3
-10 0 -27 6 -39 8 -15 9 -19 1 -15 -14 9 -10 -36 4 -46 6 -5 6 -8 -2 -8 -6 0
-10 -8 -9 -17 3 -17 23 -18 249 -21 171 -2 247 1 247 8 0 6 -5 8 -12 3 -8 -4
-7 2 3 17 17 28 14 64 -4 53 -7 -3 -3 4 8 17 11 13 15 20 8 16 -9 -5 -12 2
-10 21 2 25 6 28 39 29 20 0 34 -4 31 -9 -3 -5 4 -4 15 2 27 14 35 14 26 -1
-5 -9 -2 -9 9 1 13 10 17 10 17 1 0 -10 3 -10 14 -1 12 10 14 9 11 -6 -1 -10
2 -26 7 -37 7 -12 7 -16 0 -12 -6 4 -10 -2 -9 -14 1 -11 5 -20 10 -20 5 0 3
-7 -4 -17 -11 -13 -11 -17 -1 -21 10 -3 10 -7 1 -18 -10 -12 48 -14 400 -14
l411 0 0 324 c0 206 -4 327 -10 331 -5 3 -10 0 -10 -7 0 -9 -3 -9 -10 2 -7 11
-10 11 -10 2 0 -10 -5 -10 -20 -2 -15 8 -20 8 -20 -2 0 -9 -3 -9 -10 2 -5 8
-10 10 -10 4 0 -18 -35 -9 -61 15 -13 13 -18 21 -12 17 9 -5 13 0 12 16 0 13
2 38 4 56 2 18 0 35 -5 38 -4 3 -4 14 2 24 6 12 7 21 0 25 -11 7 -9 65 3 65 5
0 5 6 1 12 -11 17 -12 48 -2 42 4 -3 8 3 9 13 0 10 3 13 5 7 3 -7 14 -10 24
-7 13 3 20 0 20 -8 1 -9 6 -7 15 5 8 11 15 15 15 8 0 -7 14 -11 35 -10 l35 1
0 83 c0 65 -3 83 -16 88 -9 3 -12 2 -9 -4 7 -12 -36 -7 -56 6 -8 4 -9 3 -5 -4
9 -15 -6 -16 -21 -1 -8 8 -13 8 -17 0 -4 -6 -12 -11 -17 -11 -6 0 -7 5 -4 10
3 6 0 10 -7 10 -8 0 -14 9 -14 20 0 11 4 20 9 20 5 0 4 7 -3 15 -7 8 -9 15 -4
15 5 0 2 5 -6 10 -12 8 -12 10 5 10 11 0 16 4 10 8 -5 4 -10 14 -10 22 0 23
18 40 28 26 5 -8 10 -7 17 4 7 11 10 11 10 2 0 -10 5 -10 20 -2 15 8 20 8 20
-2 0 -8 3 -9 8 -3 9 13 42 16 42 3 0 -5 5 -6 10 -3 11 7 14 158 3 168 -3 4
-13 1 -21 -6 -13 -9 -14 -9 -8 1 4 7 1 12 -9 12 -10 0 -13 -5 -9 -12 5 -9 2
-9 -9 1 -14 11 -17 11 -17 0 0 -9 -3 -10 -8 -4 -4 6 -22 11 -41 12 -18 0 -38
7 -45 14 -8 9 -8 10 0 6 14 -8 27 20 14 28 -7 4 -6 13 0 25 7 13 5 21 -6 31
-14 12 -14 14 2 26 10 7 13 13 8 13 -5 0 -10 9 -10 20 0 11 5 20 11 20 5 0 3
5 -5 10 -12 8 -12 10 -1 10 11 0 11 3 1 15 -7 8 -9 15 -4 15 5 0 2 5 -6 10
-12 8 -12 10 5 11 11 0 14 3 8 6 -7 2 -13 9 -13 14 0 6 5 7 11 3 8 -5 8 -1 0
13 -6 11 -8 23 -5 26 3 3 -13 4 -35 4 -23 -1 -43 3 -45 8 -3 6 -5 4 -5 -3 -1
-7 -6 -10 -11 -7 -6 4 -18 1 -27 -7 -14 -11 -16 -11 -10 4 4 12 2 15 -9 11 -7
-3 -14 0 -14 7 0 6 -5 8 -12 4 -7 -5 -8 -3 -2 7 15 24 16 62 2 70 -10 7 -10 9
1 9 11 0 11 3 0 17 -8 9 -9 14 -3 11 6 -5 10 16 11 58 1 42 -3 64 -10 64 -9 0
-9 2 -1 8 14 9 15 43 1 60 -12 15 -31 16 -21 0 4 -6 3 -8 -3 -5 -16 10 -94 17
-88 7 3 -4 -4 -6 -15 -3 -11 3 -20 13 -20 22 0 10 -3 21 -7 25 -9 8 -12 46 -3
41 4 -2 7 9 7 25 0 17 -5 30 -11 30 -6 0 -5 5 2 12 15 15 16 32 1 22 -7 -4 -7
1 1 16 9 18 9 24 0 30 -9 5 -9 9 -1 14 6 4 11 12 11 17 0 6 -4 8 -8 5 -4 -2
-8 4 -8 14 0 10 4 17 7 14 10 -6 5 38 -6 55 -6 10 -4 12 6 6 12 -8 12 -6 0 8
-7 9 -9 17 -4 17 13 0 12 33 -1 42 -8 6 -8 8 0 8 7 0 14 7 17 14 4 11 1 13
-11 8 -15 -5 -15 -3 2 22 11 18 13 26 5 21 -11 -7 -11 -5 0 6 11 11 14 11 18
1 4 -10 8 -10 21 0 12 10 14 10 8 1 -4 -7 -3 -13 3 -13 5 0 12 6 14 13 4 9 8
9 15 -2 8 -11 10 -11 15 0 5 12 6 12 6 0 1 -11 4 -11 18 0 15 12 16 12 8 -1
-7 -12 -6 -13 7 -3 8 7 17 11 19 9 2 -2 5 13 6 35 2 25 -2 39 -10 39 -7 0 -8
3 -2 8 14 10 19 46 5 37 -7 -4 -6 1 2 14 7 12 19 19 27 16 12 -5 12 -3 0 11
-13 16 -12 16 11 4 30 -16 59 -20 66 -8 3 4 10 8 15 8 6 0 7 -5 3 -11 -5 -8
-1 -8 13 0 11 6 23 7 27 3 4 -3 4 2 0 12 -6 15 -4 17 7 11 11 -7 12 -6 2 6 -7
9 -9 20 -3 29 6 10 4 20 -6 31 -14 16 -14 18 3 28 10 6 13 11 8 11 -13 0 -14
40 -2 40 5 0 4 6 -2 13 -6 8 -8 16 -5 20 9 9 11 68 2 73 -4 3 -4 14 2 24 6 12
7 21 0 25 -11 7 -8 65 4 65 5 0 4 6 -2 13 -12 14 -11 67 2 67 5 0 4 6 -2 13
-12 14 -11 67 2 67 5 0 4 6 -2 13 -13 15 -11 67 2 67 6 0 5 5 -2 12 -16 16
-15 31 1 22 9 -6 9 -5 0 7 -7 9 -9 20 -3 29 6 10 4 20 -6 31 -14 16 -14 18 3
28 10 6 13 11 8 11 -6 0 -11 9 -11 20 0 11 5 20 11 20 5 0 3 5 -5 10 -12 8
-12 10 -1 10 11 0 11 3 1 15 -7 8 -9 15 -4 15 5 0 2 5 -6 10 -12 8 -12 10 5
10 11 0 16 4 10 8 -13 9 -16 42 -4 42 5 0 9 5 9 11 0 5 -4 7 -10 4 -6 -3 -7 1
-4 9 4 11 0 16 -11 16 -10 0 -13 5 -9 12 5 7 3 8 -7 2 -21 -13 -39 -14 -39 -1
0 7 -5 6 -10 -3 -8 -12 -11 -13 -19 -1 -6 9 -11 10 -15 2 -4 -6 -12 -11 -17
-11 -6 0 -7 6 -3 13 6 9 5 9 -8 0 -18 -15 -29 -7 -21 15 5 11 3 13 -7 7 -10
-6 -11 -4 -4 6 13 22 14 42 1 58 -8 10 -8 13 -1 8 8 -5 11 5 11 28 l-1 35
-328 0 c-180 0 -328 -4 -328 -8 0 -4 6 -14 13 -21 6 -8 7 -11 2 -8 -15 8 -16
-96 -1 -105 7 -5 5 -8 -6 -8 -10 0 -18 -4 -18 -10 0 -11 -28 -9 -49 4 -10 6
-12 5 -7 -2 9 -16 -7 -15 -22 0 -9 9 -12 9 -12 -1 0 -10 -3 -11 -14 -2 -10 8
-16 9 -21 1 -3 -6 -10 -8 -14 -6 -4 3 -8 -9 -9 -27 -1 -18 -3 -46 -5 -64 -2
-17 0 -30 4 -27 11 6 5 -70 -6 -78 -6 -5 -5 -8 3 -8 10 0 10 -5 2 -20 -6 -12
-7 -20 -1 -20 6 0 6 -11 1 -30 -5 -19 -5 -28 1 -25 5 4 9 -1 9 -10 0 -10 -5
-13 -12 -9 -7 4 -8 3 -4 -5 13 -21 15 -82 3 -75 -8 5 -8 3 0 -6 8 -9 9 -19 3
-31 -7 -11 -7 -20 0 -24 5 -3 10 -11 10 -16 0 -6 -5 -7 -12 -3 -7 4 -8 3 -4
-5 13 -21 15 -82 3 -74 -9 5 -8 2 0 -8 7 -9 9 -20 3 -29 -5 -8 -5 -19 0 -25
11 -13 8 -65 -4 -65 -5 0 -1 -9 8 -19 17 -18 17 -20 -1 -30 -10 -6 -13 -11 -8
-11 6 0 11 -9 11 -20 0 -11 -5 -20 -11 -20 -6 0 -7 -3 0 -8 6 -4 10 -14 10
-22 0 -8 -4 -18 -10 -22 -6 -5 -5 -8 3 -8 10 0 10 -5 2 -20 -6 -12 -7 -20 -1
-20 6 0 6 -11 1 -30 -5 -19 -5 -28 1 -25 5 4 9 -1 9 -10 0 -10 -5 -13 -12 -9
-7 4 -8 3 -4 -5 13 -21 15 -82 3 -75 -8 5 -8 3 0 -6 8 -9 9 -19 3 -31 -7 -11
-7 -20 0 -24 6 -4 1 -15 -11 -28 -17 -19 -21 -20 -29 -7 -9 13 -11 13 -20 0
-9 -13 -11 -13 -20 0 -9 13 -10 13 -10 0 0 -12 -2 -12 -9 -1 -5 8 -11 9 -15 3
-3 -6 -15 -10 -25 -9 -15 1 -18 10 -18 53 0 29 -4 57 -7 63 -4 6 -1 11 6 11 9
0 9 3 -2 10 -13 9 -13 10 0 10 13 0 13 1 0 10 -13 9 -13 10 0 10 13 0 13 1 0
10 -9 6 -10 10 -3 10 8 0 9 9 3 29 -6 21 -5 31 3 35 9 3 9 5 0 5 -8 1 -9 10
-3 31 11 37 10 40 -1 63 -7 12 -6 17 3 17 9 0 9 3 -2 10 -13 9 -13 10 0 10 13
0 13 1 0 10 -13 9 -13 10 0 10 13 0 13 1 0 10 -9 6 -10 10 -3 10 8 0 9 9 3 29
-6 21 -5 31 3 35 9 3 9 5 0 5 -8 1 -9 10 -3 31 5 17 10 31 11 33 1 1 -3 12
-10 25 -9 17 -9 22 1 22 10 0 10 2 -1 9 -7 5 -9 11 -4 14 10 6 9 109 -1 125
-4 7 -1 12 6 12 9 0 9 3 -2 10 -13 9 -13 10 0 10 13 0 13 1 0 10 -13 9 -13 10
0 10 13 0 13 1 0 10 -9 6 -10 10 -3 10 8 0 9 9 3 29 -6 21 -5 31 3 35 9 3 9 5
0 5 -8 1 -9 10 -3 31 11 37 10 40 -1 63 -7 12 -6 17 3 17 8 0 9 3 3 8 -13 9
-13 82 0 82 5 0 4 5 -3 12 -16 16 -15 31 1 22 9 -5 9 -4 1 5 -13 15 -57 24
-48 10 8 -13 -29 -7 -38 6 -5 6 -8 5 -8 -3 0 -10 -5 -10 -21 -1 -15 8 -19 8
-15 0 8 -13 -4 -14 -23 -2 -7 5 -14 30 -15 59 -2 30 1 49 7 45 5 -3 5 2 -1 13
-5 11 -7 25 -5 32 4 9 -66 12 -329 12 -219 0 -328 -4 -318 -10z"/>
</g>
</svg>
